<?xml version="1.0" encoding="UTF-8"?>
<svg xmlns="http://www.w3.org/2000/svg" width="19.10" height="24.00" viewBox="0 0 19.10 24.00" aria-label="수">
  <title>수</title>
  <g fill="currentColor" transform="translate(2.00,17.54) scale(0.007374,-0.007374)">
    <path transform="translate(0,0)" d="M930 1440Q952 1452 978.0 1438.5Q1004 1425 1012 1393Q1022 1358 1029.0 1316.0Q1036 1274 1048.5 1243.0Q1061 1212 1094 1171Q1133 1124 1167.5 1090.5Q1202 1057 1269.5 1006.5Q1337 956 1439.5 915.0Q1542 874 1673 848Q1792 823 1821 799Q1839 782 1832.0 760.5Q1825 739 1798 731Q1755 717 1554.5 779.5Q1354 842 1276 885Q1178 936 1092.0 1011.5Q1006 1087 973 1147L963 1167L946 1139Q903 1061 810.0 980.0Q717 899 629.0 862.0Q541 825 349.5 780.0Q158 735 127 764Q102 788 113 815Q119 840 215.0 857.0Q311 874 448.5 909.0Q586 944 664 1006Q702 1036 755.5 1090.5Q809 1145 823 1167Q854 1217 882.5 1323.5Q911 1430 930 1440ZM1855 389Q1864 387 1875.0 367.5Q1886 348 1886 338Q1886 329 1855 301H1024V10Q1024 -279 1016 -289Q975 -340 922 -274V301H514Q106 301 94 307Q68 319 68.0 345.0Q68 371 92 385Q100 393 216.0 394.0Q332 395 977 395Q1847 395 1855 389Z"/>
  </g>
</svg>